<svg xmlns="http://www.w3.org/2000/svg" version="1.1" xmlns:xlink="http://www.w3.org/1999/xlink" xmlns:svgjs="http://svgjs.com/svgjs" width="1000" height="1000"><rect width="1000" height="1000" rx="200" ry="200" fill="#555555"></rect><g transform="matrix(6.164383561643835,0,0,6.164383561643835,51.10516223740092,355.61696085763765)"><svg xmlns="http://www.w3.org/2000/svg" version="1.1" xmlns:xlink="http://www.w3.org/1999/xlink" xmlns:svgjs="http://svgjs.com/svgjs" width="146" height="47"><svg width="146" height="47" viewBox="0 0 146 47" fill="none" xmlns="http://www.w3.org/2000/svg">
<path opacity="0.5" d="M46.8309 0.316249L35.3709 43.1066C35.3127 43.3008 35.0796 43.3591 34.9436 43.2231L27.2713 35.5508L33.0207 14.107C33.079 13.9128 32.9041 13.738 32.7099 13.7963L11.2662 19.5457L3.63269 11.9122C3.49673 11.7762 3.555 11.5431 3.74924 11.4849L46.5201 0.00546995C46.7144 -0.0333774 46.8892 0.141436 46.8309 0.316249Z" fill="#00B37E"></path>
<path opacity="0.5" d="M27.2672 35.552L24.3148 46.6235C24.2566 46.8177 24.0235 46.876 23.8875 46.74L0.0741007 22.946C-0.0618649 22.81 -0.00359419 22.577 0.190642 22.5187L11.2621 19.5469L27.2672 35.552Z" fill="#00B37E"></path>
<path d="M33.0201 14.1034L27.2707 35.5471L11.2656 19.542L32.7093 13.7926C32.9036 13.7344 33.0784 13.9092 33.0201 14.1034Z" fill="#00B37E"></path>
<path d="M69.6992 10.6371C69.6992 9.96664 69.9184 9.41226 70.3696 8.97392C70.8209 8.53558 71.4397 8.31641 72.2133 8.31641C72.9739 8.31641 73.5927 8.53558 74.044 8.97392C74.4952 9.41226 74.7273 9.96664 74.7273 10.6371C74.7273 11.3204 74.4952 11.8747 74.0311 12.3131C73.567 12.7514 72.961 12.9706 72.2004 12.9706C71.4397 12.9706 70.8338 12.7514 70.3696 12.3131C69.9313 11.8876 69.6992 11.3204 69.6992 10.6371ZM74.4694 31.7936H69.97V14.9818H74.4694V31.7936Z" fill="#E1E1E6"></path>
<path d="M77.0352 23.2739C77.0352 20.6954 77.654 18.6197 78.8788 17.0468C80.1036 15.4739 81.7538 14.6875 83.8424 14.6875C85.686 14.6875 87.1171 15.3192 88.1485 16.5827L88.329 14.9969H92.403V31.2414C92.403 32.7112 92.0678 33.9875 91.3974 35.0834C90.727 36.1664 89.7858 37.0044 88.5739 37.5716C87.362 38.1389 85.9439 38.4225 84.3194 38.4225C83.0817 38.4225 81.8827 38.1776 80.7224 37.6877C79.5492 37.1977 78.6725 36.566 78.0666 35.7796L80.052 33.0464C81.1736 34.2969 82.5273 34.9287 84.126 34.9287C85.3121 34.9287 86.2404 34.6064 86.9108 33.9746C87.5683 33.3429 87.9035 32.4404 87.9035 31.2672V30.3647C86.8721 31.538 85.5055 32.1181 83.8166 32.1181C81.7925 32.1181 80.168 31.3317 78.9175 29.7459C77.6669 28.173 77.048 26.0716 77.048 23.4673V23.2739H77.0352ZM81.5217 23.5962C81.5217 25.1175 81.8312 26.3165 82.4371 27.1803C83.043 28.0441 83.8811 28.4824 84.9511 28.4824C86.3177 28.4824 87.2976 27.9667 87.8906 26.9482V19.8703C87.2847 18.8389 86.3177 18.3361 84.9898 18.3361C83.9068 18.3361 83.0688 18.7744 82.45 19.664C81.8312 20.5278 81.5217 21.8557 81.5217 23.5962Z" fill="#E1E1E6"></path>
<path d="M99.4959 14.9774L99.6377 16.9242C100.837 15.4286 102.448 14.668 104.472 14.668C106.252 14.668 107.579 15.1966 108.443 16.2409C109.307 17.2851 109.758 18.8451 109.784 20.9337V31.7892H105.298V21.0368C105.298 20.0828 105.091 19.3995 104.679 18.9612C104.266 18.5357 103.57 18.3165 102.616 18.3165C101.352 18.3165 100.411 18.858 99.7795 19.9281V31.7763H95.293V14.9774H99.4959Z" fill="#E1E1E6"></path>
<path d="M112.672 10.6371C112.672 9.96664 112.891 9.41226 113.342 8.97392C113.794 8.53558 114.412 8.31641 115.186 8.31641C115.947 8.31641 116.565 8.53558 117.017 8.97392C117.468 9.41226 117.7 9.96664 117.7 10.6371C117.7 11.3204 117.468 11.8747 117.004 12.3131C116.54 12.7514 115.934 12.9706 115.173 12.9706C114.412 12.9706 113.806 12.7514 113.342 12.3131C112.904 11.8876 112.672 11.3204 112.672 10.6371ZM117.442 31.7936H112.943V14.9818H117.442V31.7936Z" fill="#E1E1E6"></path>
<path d="M126.038 10.8555V14.9811H128.913V18.2686H126.038V26.6616C126.038 27.2805 126.154 27.7317 126.399 28.0025C126.631 28.2732 127.095 28.4021 127.765 28.4021C128.268 28.4021 128.706 28.3634 129.08 28.299V31.7026C128.204 31.9733 127.288 32.1023 126.36 32.1023C123.214 32.1023 121.603 30.5165 121.551 27.3321V18.2815H119.102V14.994H121.551V10.8684H126.038V10.8555Z" fill="#E1E1E6"></path>
<path d="M138.662 32.0998C136.199 32.0998 134.188 31.3391 132.641 29.8307C131.094 28.3223 130.32 26.3111 130.32 23.7841V23.3458C130.32 21.6569 130.643 20.1484 131.3 18.8205C131.958 17.4926 132.873 16.4612 134.072 15.7392C135.271 15.0172 136.638 14.6562 138.159 14.6562C140.454 14.6562 142.272 15.3782 143.587 16.8351C144.902 18.279 145.572 20.3418 145.572 22.9977V24.8284H134.871C135.013 25.9243 135.452 26.801 136.186 27.4714C136.921 28.1289 137.837 28.4641 138.958 28.4641C140.686 28.4641 142.04 27.8324 143.007 26.5818L145.211 29.0571C144.541 30.0112 143.625 30.7589 142.478 31.2875C141.343 31.829 140.067 32.0998 138.662 32.0998ZM138.159 18.2919C137.269 18.2919 136.547 18.5885 135.993 19.1944C135.439 19.8003 135.091 20.6641 134.923 21.7858H141.163V21.4248C141.137 20.4321 140.879 19.6585 140.351 19.1042C139.835 18.5627 139.1 18.2919 138.159 18.2919Z" fill="#E1E1E6"></path>
</svg></svg></g></svg>